STARTFONT 2.1
COMMENT $XConsortium: luRS08.bdf,v 1.7 94/04/02 16:00:02 gildea Exp $
COMMENT  (c) Copyright Bigelow & Holmes 1986, 1985. Lucida is a registered
COMMENT  trademark of Bigelow & Holmes. See LEGAL NOTICE file for terms 
COMMENT  of the license. 
FONT -RFX-Serene-Medium-R-Normal-Sans-8-80-75-75-P-45-windows-1251
SIZE 8 72 72
FONTBOUNDINGBOX 12 11 -4 -3
STARTPROPERTIES 24
FONTNAME_REGISTRY ""
FOUNDRY "RFX"
FAMILY_NAME "Serene"
WEIGHT_NAME "Medium"
SLANT "R"
SETWIDTH_NAME "Normal"
ADD_STYLE_NAME "Sans"
PIXEL_SIZE 8
POINT_SIZE 80
RESOLUTION_X 75
RESOLUTION_Y 75
SPACING "P"
AVERAGE_WIDTH 45
CHARSET_REGISTRY "windows"
CHARSET_ENCODING "1251"
FONT_ASCENT 7
FONT_DESCENT 2
DEFAULT_CHAR 32
COPYRIGHT "Copyright Bigelow & Holmes 1986, 1985."
FACE_NAME "Lucida Sans"
COPYRIGHT2 "Cyrillic and Euro glyphs copyright 2000 Dmitry Yu. Bolkhovityanov, bolkhov@inp.nsk.su"
SOURCEDATE "Sat Jul 22 13:08:08 2000"
PKGVERSION "1.1"
ASSEMBLER "cvtbdf.pl (Linux)"
ENDPROPERTIES
CHARS 244
STARTCHAR space
ENCODING 32
SWIDTH 316 0
DWIDTH 3 0
BBX 0 0 0 0
BITMAP
ENDCHAR
STARTCHAR exclam
ENCODING 33
SWIDTH 205 0
DWIDTH 3 0
BBX 1 6 1 0
BITMAP
80
80
80
80
00
80
ENDCHAR
STARTCHAR quotedbl
ENCODING 34
SWIDTH 373 0
DWIDTH 3 0
BBX 2 2 0 4
BITMAP
C0
C0
ENDCHAR
STARTCHAR numbersign
ENCODING 35
SWIDTH 633 0
DWIDTH 5 0
BBX 5 6 0 0
BITMAP
38
F8
50
F8
60
E0
ENDCHAR
STARTCHAR dollar
ENCODING 36
SWIDTH 633 0
DWIDTH 5 0
BBX 3 7 1 -1
BITMAP
E0
C0
C0
60
60
E0
40
ENDCHAR
STARTCHAR percent
ENCODING 37
SWIDTH 669 0
DWIDTH 5 0
BBX 4 6 1 0
BITMAP
D0
E0
E0
70
70
B0
ENDCHAR
STARTCHAR ampersand
ENCODING 38
SWIDTH 697 0
DWIDTH 6 0
BBX 4 7 1 -1
BITMAP
60
60
40
F0
B0
60
10
ENDCHAR
STARTCHAR quotesingle
ENCODING 39
SWIDTH 229 0
DWIDTH 2 0
BBX 1 2 0 4
BITMAP
80
80
ENDCHAR
STARTCHAR parenleft
ENCODING 40
SWIDTH 325 0
DWIDTH 3 0
BBX 2 8 0 -2
BITMAP
40
80
80
80
80
80
80
40
ENDCHAR
STARTCHAR parenright
ENCODING 41
SWIDTH 325 0
DWIDTH 3 0
BBX 2 8 0 -2
BITMAP
80
40
40
40
40
40
40
80
ENDCHAR
STARTCHAR asterisk
ENCODING 42
SWIDTH 482 0
DWIDTH 4 0
BBX 3 3 0 3
BITMAP
40
E0
A0
ENDCHAR
STARTCHAR plus
ENCODING 43
SWIDTH 633 0
DWIDTH 5 0
BBX 5 5 0 0
BITMAP
20
20
F8
20
20
ENDCHAR
STARTCHAR comma
ENCODING 44
SWIDTH 316 0
DWIDTH 3 0
BBX 1 3 1 -2
BITMAP
80
80
80
ENDCHAR
STARTCHAR minus
ENCODING 45
SWIDTH 633 0
DWIDTH 5 0
BBX 5 1 0 2
BITMAP
F8
ENDCHAR
STARTCHAR period
ENCODING 46
SWIDTH 316 0
DWIDTH 3 0
BBX 1 1 1 0
BITMAP
80
ENDCHAR
STARTCHAR slash
ENCODING 47
SWIDTH 494 0
DWIDTH 4 0
BBX 4 8 0 -2
BITMAP
10
30
20
20
40
40
C0
80
ENDCHAR
STARTCHAR zero
ENCODING 48
SWIDTH 633 0
DWIDTH 5 0
BBX 4 6 1 0
BITMAP
60
90
90
90
90
60
ENDCHAR
STARTCHAR one
ENCODING 49
SWIDTH 633 0
DWIDTH 5 0
BBX 2 6 1 0
BITMAP
C0
40
40
40
40
40
ENDCHAR
STARTCHAR two
ENCODING 50
SWIDTH 633 0
DWIDTH 5 0
BBX 4 6 0 0
BITMAP
E0
10
10
60
C0
F0
ENDCHAR
STARTCHAR three
ENCODING 51
SWIDTH 633 0
DWIDTH 5 0
BBX 4 6 0 0
BITMAP
E0
10
60
30
10
E0
ENDCHAR
STARTCHAR four
ENCODING 52
SWIDTH 633 0
DWIDTH 5 0
BBX 5 6 0 0
BITMAP
30
70
D0
F8
10
10
ENDCHAR
STARTCHAR five
ENCODING 53
SWIDTH 633 0
DWIDTH 5 0
BBX 3 6 1 0
BITMAP
E0
80
E0
20
20
C0
ENDCHAR
STARTCHAR six
ENCODING 54
SWIDTH 633 0
DWIDTH 5 0
BBX 4 6 1 0
BITMAP
70
80
E0
90
90
60
ENDCHAR
STARTCHAR seven
ENCODING 55
SWIDTH 633 0
DWIDTH 5 0
BBX 4 6 1 0
BITMAP
F0
10
20
40
C0
80
ENDCHAR
STARTCHAR eight
ENCODING 56
SWIDTH 633 0
DWIDTH 5 0
BBX 4 6 1 0
BITMAP
70
90
60
B0
90
60
ENDCHAR
STARTCHAR nine
ENCODING 57
SWIDTH 633 0
DWIDTH 5 0
BBX 4 6 1 0
BITMAP
60
90
90
70
10
E0
ENDCHAR
STARTCHAR colon
ENCODING 58
SWIDTH 316 0
DWIDTH 3 0
BBX 1 4 1 0
BITMAP
80
00
00
80
ENDCHAR
STARTCHAR semicolon
ENCODING 59
SWIDTH 316 0
DWIDTH 3 0
BBX 1 6 1 -2
BITMAP
80
00
00
80
80
80
ENDCHAR
STARTCHAR less
ENCODING 60
SWIDTH 633 0
DWIDTH 5 0
BBX 5 5 0 0
BITMAP
08
30
C0
30
08
ENDCHAR
STARTCHAR equal
ENCODING 61
SWIDTH 633 0
DWIDTH 5 0
BBX 5 2 0 1
BITMAP
F8
F8
ENDCHAR
STARTCHAR greater
ENCODING 62
SWIDTH 633 0
DWIDTH 5 0
BBX 5 5 0 0
BITMAP
80
60
18
60
80
ENDCHAR
STARTCHAR question
ENCODING 63
SWIDTH 422 0
DWIDTH 3 0
BBX 3 6 0 0
BITMAP
E0
20
20
40
40
40
ENDCHAR
STARTCHAR at
ENCODING 64
SWIDTH 858 0
DWIDTH 7 0
BBX 7 6 1 0
BITMAP
3C
5E
AA
B2
FC
78
ENDCHAR
STARTCHAR A
ENCODING 65
SWIDTH 690 0
DWIDTH 6 0
BBX 5 6 0 0
BITMAP
20
70
50
70
88
88
ENDCHAR
STARTCHAR B
ENCODING 66
SWIDTH 575 0
DWIDTH 5 0
BBX 4 6 1 0
BITMAP
F0
90
E0
B0
90
E0
ENDCHAR
STARTCHAR C
ENCODING 67
SWIDTH 692 0
DWIDTH 6 0
BBX 5 6 0 0
BITMAP
78
C0
80
80
C8
78
ENDCHAR
STARTCHAR D
ENCODING 68
SWIDTH 749 0
DWIDTH 6 0
BBX 5 6 1 0
BITMAP
F0
98
88
88
88
F0
ENDCHAR
STARTCHAR E
ENCODING 69
SWIDTH 542 0
DWIDTH 4 0
BBX 4 6 0 0
BITMAP
F0
80
E0
80
80
F0
ENDCHAR
STARTCHAR F
ENCODING 70
SWIDTH 536 0
DWIDTH 4 0
BBX 3 6 1 0
BITMAP
E0
80
80
E0
80
80
ENDCHAR
STARTCHAR G
ENCODING 71
SWIDTH 723 0
DWIDTH 6 0
BBX 5 6 0 0
BITMAP
78
C0
80
88
C8
78
ENDCHAR
STARTCHAR H
ENCODING 72
SWIDTH 735 0
DWIDTH 6 0
BBX 4 6 1 0
BITMAP
90
90
F0
90
90
90
ENDCHAR
STARTCHAR I
ENCODING 73
SWIDTH 288 0
DWIDTH 2 0
BBX 1 6 1 0
BITMAP
80
80
80
80
80
80
ENDCHAR
STARTCHAR J
ENCODING 74
SWIDTH 311 0
DWIDTH 2 0
BBX 3 8 0 -2
BITMAP
20
20
20
20
20
20
20
C0
ENDCHAR
STARTCHAR K
ENCODING 75
SWIDTH 653 0
DWIDTH 5 0
BBX 4 6 1 0
BITMAP
B0
A0
C0
C0
A0
90
ENDCHAR
STARTCHAR L
ENCODING 76
SWIDTH 533 0
DWIDTH 4 0
BBX 4 6 0 0
BITMAP
80
80
80
80
80
F0
ENDCHAR
STARTCHAR M
ENCODING 77
SWIDTH 861 0
DWIDTH 7 0
BBX 5 6 1 0
BITMAP
88
D8
D8
D8
A8
A8
ENDCHAR
STARTCHAR N
ENCODING 78
SWIDTH 741 0
DWIDTH 6 0
BBX 4 6 1 0
BITMAP
90
D0
D0
B0
B0
90
ENDCHAR
STARTCHAR O
ENCODING 79
SWIDTH 777 0
DWIDTH 6 0
BBX 5 6 1 0
BITMAP
70
D8
88
88
D8
70
ENDCHAR
STARTCHAR P
ENCODING 80
SWIDTH 553 0
DWIDTH 4 0
BBX 4 6 1 0
BITMAP
F0
90
90
E0
80
80
ENDCHAR
STARTCHAR Q
ENCODING 81
SWIDTH 777 0
DWIDTH 6 0
BBX 6 8 0 -2
BITMAP
70
D8
88
88
D8
70
08
04
ENDCHAR
STARTCHAR R
ENCODING 82
SWIDTH 633 0
DWIDTH 5 0
BBX 4 6 1 0
BITMAP
E0
A0
A0
C0
A0
90
ENDCHAR
STARTCHAR S
ENCODING 83
SWIDTH 539 0
DWIDTH 4 0
BBX 3 6 1 0
BITMAP
E0
80
C0
60
20
E0
ENDCHAR
STARTCHAR T
ENCODING 84
SWIDTH 633 0
DWIDTH 5 0
BBX 5 6 0 0
BITMAP
F8
20
20
20
20
20
ENDCHAR
STARTCHAR U
ENCODING 85
SWIDTH 693 0
DWIDTH 6 0
BBX 4 6 1 0
BITMAP
90
90
90
90
90
F0
ENDCHAR
STARTCHAR V
ENCODING 86
SWIDTH 654 0
DWIDTH 5 0
BBX 5 6 0 0
BITMAP
88
88
50
50
70
20
ENDCHAR
STARTCHAR W
ENCODING 87
SWIDTH 855 0
DWIDTH 7 0
BBX 7 6 0 0
BITMAP
92
92
6C
6C
6C
6C
ENDCHAR
STARTCHAR X
ENCODING 88
SWIDTH 626 0
DWIDTH 5 0
BBX 5 6 0 0
BITMAP
C8
50
20
60
50
88
ENDCHAR
STARTCHAR Y
ENCODING 89
SWIDTH 623 0
DWIDTH 5 0
BBX 5 6 0 0
BITMAP
88
50
50
20
20
20
ENDCHAR
STARTCHAR Z
ENCODING 90
SWIDTH 605 0
DWIDTH 5 0
BBX 4 6 0 0
BITMAP
F0
30
20
40
C0
F0
ENDCHAR
STARTCHAR bracketleft
ENCODING 91
SWIDTH 325 0
DWIDTH 3 0
BBX 2 8 1 -2
BITMAP
C0
80
80
80
80
80
80
C0
ENDCHAR
STARTCHAR backslash
ENCODING 92
SWIDTH 494 0
DWIDTH 4 0
BBX 4 8 0 -2
BITMAP
80
C0
40
40
20
20
30
10
ENDCHAR
STARTCHAR bracketright
ENCODING 93
SWIDTH 325 0
DWIDTH 3 0
BBX 2 8 0 -2
BITMAP
C0
40
40
40
40
40
40
C0
ENDCHAR
STARTCHAR asciicircum
ENCODING 94
SWIDTH 633 0
DWIDTH 5 0
BBX 5 5 0 1
BITMAP
20
20
50
50
88
ENDCHAR
STARTCHAR underscore
ENCODING 95
SWIDTH 500 0
DWIDTH 4 0
BBX 3 1 1 -1
BITMAP
E0
ENDCHAR
STARTCHAR grave
ENCODING 96
SWIDTH 614 0
DWIDTH 5 0
BBX 2 1 1 5
BITMAP
C0
ENDCHAR
STARTCHAR a
ENCODING 97
SWIDTH 552 0
DWIDTH 4 0
BBX 4 4 0 0
BITMAP
E0
60
A0
D0
ENDCHAR
STARTCHAR b
ENCODING 98
SWIDTH 630 0
DWIDTH 5 0
BBX 4 6 1 0
BITMAP
80
80
E0
90
90
E0
ENDCHAR
STARTCHAR c
ENCODING 99
SWIDTH 518 0
DWIDTH 4 0
BBX 3 4 1 0
BITMAP
60
80
80
60
ENDCHAR
STARTCHAR d
ENCODING 100
SWIDTH 630 0
DWIDTH 5 0
BBX 4 6 0 0
BITMAP
10
10
70
90
90
70
ENDCHAR
STARTCHAR e
ENCODING 101
SWIDTH 557 0
DWIDTH 4 0
BBX 4 4 0 0
BITMAP
60
F0
80
70
ENDCHAR
STARTCHAR f
ENCODING 102
SWIDTH 367 0
DWIDTH 3 0
BBX 3 6 0 0
BITMAP
60
40
E0
40
40
40
ENDCHAR
STARTCHAR g
ENCODING 103
SWIDTH 623 0
DWIDTH 5 0
BBX 4 6 0 -2
BITMAP
70
90
90
70
10
E0
ENDCHAR
STARTCHAR h
ENCODING 104
SWIDTH 620 0
DWIDTH 5 0
BBX 3 6 1 0
BITMAP
80
80
E0
A0
A0
A0
ENDCHAR
STARTCHAR i
ENCODING 105
SWIDTH 289 0
DWIDTH 2 0
BBX 1 6 1 0
BITMAP
80
00
80
80
80
80
ENDCHAR
STARTCHAR j
ENCODING 106
SWIDTH 304 0
DWIDTH 2 0
BBX 2 8 0 -2
BITMAP
40
00
40
40
40
40
40
C0
ENDCHAR
STARTCHAR k
ENCODING 107
SWIDTH 585 0
DWIDTH 5 0
BBX 4 6 1 0
BITMAP
80
80
B0
E0
E0
B0
ENDCHAR
STARTCHAR l
ENCODING 108
SWIDTH 289 0
DWIDTH 2 0
BBX 1 6 1 0
BITMAP
80
80
80
80
80
80
ENDCHAR
STARTCHAR m
ENCODING 109
SWIDTH 934 0
DWIDTH 7 0
BBX 5 4 1 0
BITMAP
F8
A8
A8
A8
ENDCHAR
STARTCHAR n
ENCODING 110
SWIDTH 620 0
DWIDTH 5 0
BBX 3 4 1 0
BITMAP
E0
A0
A0
A0
ENDCHAR
STARTCHAR o
ENCODING 111
SWIDTH 614 0
DWIDTH 5 0
BBX 4 4 0 0
BITMAP
60
90
90
60
ENDCHAR
STARTCHAR p
ENCODING 112
SWIDTH 630 0
DWIDTH 5 0
BBX 4 6 1 -2
BITMAP
E0
90
90
E0
80
80
ENDCHAR
STARTCHAR q
ENCODING 113
SWIDTH 630 0
DWIDTH 5 0
BBX 4 6 0 -2
BITMAP
70
90
90
70
10
10
ENDCHAR
STARTCHAR r
ENCODING 114
SWIDTH 409 0
DWIDTH 3 0
BBX 3 4 0 0
BITMAP
E0
80
80
80
ENDCHAR
STARTCHAR s
ENCODING 115
SWIDTH 510 0
DWIDTH 4 0
BBX 3 4 1 0
BITMAP
E0
C0
20
E0
ENDCHAR
STARTCHAR t
ENCODING 116
SWIDTH 374 0
DWIDTH 3 0
BBX 3 6 0 0
BITMAP
40
40
E0
40
40
60
ENDCHAR
STARTCHAR u
ENCODING 117
SWIDTH 620 0
DWIDTH 5 0
BBX 3 4 1 0
BITMAP
A0
A0
A0
E0
ENDCHAR
STARTCHAR v
ENCODING 118
SWIDTH 572 0
DWIDTH 4 0
BBX 4 4 0 0
BITMAP
90
B0
60
60
ENDCHAR
STARTCHAR w
ENCODING 119
SWIDTH 840 0
DWIDTH 6 0
BBX 6 4 0 0
BITMAP
B4
B4
78
48
ENDCHAR
STARTCHAR x
ENCODING 120
SWIDTH 613 0
DWIDTH 5 0
BBX 4 4 0 0
BITMAP
90
60
60
90
ENDCHAR
STARTCHAR y
ENCODING 121
SWIDTH 568 0
DWIDTH 4 0
BBX 4 6 0 -2
BITMAP
90
D0
60
60
60
40
ENDCHAR
STARTCHAR z
ENCODING 122
SWIDTH 573 0
DWIDTH 5 0
BBX 4 4 0 0
BITMAP
F0
20
40
F0
ENDCHAR
STARTCHAR braceleft
ENCODING 123
SWIDTH 325 0
DWIDTH 3 0
BBX 3 8 0 -2
BITMAP
60
40
40
40
C0
40
40
60
ENDCHAR
STARTCHAR bar
ENCODING 124
SWIDTH 265 0
DWIDTH 2 0
BBX 1 8 1 -2
BITMAP
80
80
80
80
80
80
80
80
ENDCHAR
STARTCHAR braceright
ENCODING 125
SWIDTH 325 0
DWIDTH 3 0
BBX 3 8 0 -2
BITMAP
C0
40
40
60
40
40
40
C0
ENDCHAR
STARTCHAR asciitilde
ENCODING 126
SWIDTH 633 0
DWIDTH 5 0
BBX 5 2 0 1
BITMAP
E8
B8
ENDCHAR
STARTCHAR afii10051
ENCODING 128
SWIDTH 875 0
DWIDTH 7 0
BBX 6 6 0 0
BITMAP
F8
20
38
24
24
28
ENDCHAR
STARTCHAR afii10052
ENCODING 129
SWIDTH 500 0
DWIDTH 4 0
BBX 4 7 0 0
BITMAP
40
F0
80
80
80
80
80
ENDCHAR
STARTCHAR quotesinglbase
ENCODING 130
SWIDTH 229 0
DWIDTH 2 0
BBX 1 3 0 -2
BITMAP
80
80
80
ENDCHAR
STARTCHAR afii10100
ENCODING 131
SWIDTH 375 0
DWIDTH 3 0
BBX 3 5 0 0
BITMAP
40
E0
80
80
80
ENDCHAR
STARTCHAR quotedblbase
ENCODING 132
SWIDTH 373 0
DWIDTH 3 0
BBX 2 3 0 -2
BITMAP
C0
C0
C0
ENDCHAR
STARTCHAR ellipsis
ENCODING 133
SWIDTH 1000 0
DWIDTH 8 0
BBX 6 1 1 0
BITMAP
94
ENDCHAR
STARTCHAR dagger
ENCODING 134
SWIDTH 633 0
DWIDTH 5 0
BBX 3 8 1 -2
BITMAP
40
40
E0
40
40
40
40
40
ENDCHAR
STARTCHAR daggerdbl
ENCODING 135
SWIDTH 633 0
DWIDTH 5 0
BBX 3 8 1 -2
BITMAP
40
40
E0
40
40
E0
40
40
ENDCHAR
STARTCHAR Euro
ENCODING 136
SWIDTH 875 0
DWIDTH 7 0
BBX 6 6 0 0
BITMAP
3C
40
F8
F8
40
3C
ENDCHAR
STARTCHAR perthousand
ENCODING 137
SWIDTH 1012 0
DWIDTH 8 0
BBX 6 6 1 0
BITMAP
D0
E0
E0
7C
7C
BC
ENDCHAR
STARTCHAR afii10058
ENCODING 138
SWIDTH 1000 0
DWIDTH 8 0
BBX 8 6 0 0
BITMAP
78
48
4E
49
49
8F
ENDCHAR
STARTCHAR guilsinglleft
ENCODING 139
SWIDTH 331 0
DWIDTH 3 0
BBX 2 4 0 0
BITMAP
40
80
80
40
ENDCHAR
STARTCHAR afii10059
ENCODING 140
SWIDTH 1000 0
DWIDTH 8 0
BBX 7 6 1 0
BITMAP
90
90
FC
92
92
9E
ENDCHAR
STARTCHAR afii10061
ENCODING 141
SWIDTH 625 0
DWIDTH 5 0
BBX 4 7 1 0
BITMAP
40
B0
A0
C0
C0
A0
90
ENDCHAR
STARTCHAR afii10060
ENCODING 142
SWIDTH 875 0
DWIDTH 7 0
BBX 6 6 0 0
BITMAP
F8
20
38
24
24
24
ENDCHAR
STARTCHAR afii10145
ENCODING 143
SWIDTH 750 0
DWIDTH 6 0
BBX 4 7 1 -1
BITMAP
90
90
90
90
90
F0
20
ENDCHAR
STARTCHAR afii10099
ENCODING 144
SWIDTH 625 0
DWIDTH 5 0
BBX 4 8 0 -2
BITMAP
40
E0
70
50
50
50
10
20
ENDCHAR
STARTCHAR quoteleft
ENCODING 145
SWIDTH 229 0
DWIDTH 2 0
BBX 1 2 0 4
BITMAP
80
80
ENDCHAR
STARTCHAR quoteright
ENCODING 146
SWIDTH 229 0
DWIDTH 2 0
BBX 1 2 0 4
BITMAP
80
80
ENDCHAR
STARTCHAR quotedblleft
ENCODING 147
SWIDTH 373 0
DWIDTH 3 0
BBX 2 2 0 4
BITMAP
C0
C0
ENDCHAR
STARTCHAR quotedblright
ENCODING 148
SWIDTH 373 0
DWIDTH 3 0
BBX 2 2 0 4
BITMAP
C0
C0
ENDCHAR
STARTCHAR bullet
ENCODING 149
SWIDTH 633 0
DWIDTH 5 0
BBX 2 2 2 2
BITMAP
C0
C0
ENDCHAR
STARTCHAR endash
ENCODING 150
SWIDTH 500 0
DWIDTH 4 0
BBX 3 1 1 2
BITMAP
E0
ENDCHAR
STARTCHAR emdash
ENCODING 151
SWIDTH 1000 0
DWIDTH 8 0
BBX 7 1 1 2
BITMAP
FE
ENDCHAR
STARTCHAR trademark
ENCODING 153
SWIDTH 807 0
DWIDTH 6 0
BBX 6 3 0 3
BITMAP
F4
5C
5C
ENDCHAR
STARTCHAR afii10106
ENCODING 154
SWIDTH 750 0
DWIDTH 6 0
BBX 6 4 0 0
BITMAP
70
58
54
9C
ENDCHAR
STARTCHAR guilsinglright
ENCODING 155
SWIDTH 331 0
DWIDTH 3 0
BBX 2 4 0 0
BITMAP
80
40
40
80
ENDCHAR
STARTCHAR afii10107
ENCODING 156
SWIDTH 750 0
DWIDTH 6 0
BBX 5 4 1 0
BITMAP
A0
F0
A8
B8
ENDCHAR
STARTCHAR afii10109
ENCODING 157
SWIDTH 625 0
DWIDTH 5 0
BBX 4 5 1 0
BITMAP
60
B0
E0
E0
B0
ENDCHAR
STARTCHAR afii10108
ENCODING 158
SWIDTH 625 0
DWIDTH 5 0
BBX 4 6 0 0
BITMAP
40
E0
70
50
50
50
ENDCHAR
STARTCHAR afii10193
ENCODING 159
SWIDTH 625 0
DWIDTH 5 0
BBX 3 5 1 -1
BITMAP
A0
A0
A0
E0
40
ENDCHAR
STARTCHAR space
ENCODING 160
SWIDTH 316 0
DWIDTH 3 0
BBX 0 0 0 0
BITMAP
ENDCHAR
STARTCHAR afii10062
ENCODING 161
SWIDTH 625 0
DWIDTH 5 0
BBX 5 7 0 0
BITMAP
70
88
88
50
20
20
40
ENDCHAR
STARTCHAR afii10110
ENCODING 162
SWIDTH 500 0
DWIDTH 4 0
BBX 4 7 0 -2
BITMAP
60
90
D0
60
60
60
40
ENDCHAR
STARTCHAR afii10057
ENCODING 163
SWIDTH 311 0
DWIDTH 2 0
BBX 3 8 0 -2
BITMAP
20
20
20
20
20
20
20
C0
ENDCHAR
STARTCHAR currency
ENCODING 164
SWIDTH 633 0
DWIDTH 5 0
BBX 5 6 0 0
BITMAP
88
70
50
50
70
88
ENDCHAR
STARTCHAR afii10050
ENCODING 165
SWIDTH 500 0
DWIDTH 4 0
BBX 4 7 0 0
BITMAP
10
F0
80
80
80
80
80
ENDCHAR
STARTCHAR brokenbar
ENCODING 166
SWIDTH 265 0
DWIDTH 2 0
BBX 1 8 1 -2
BITMAP
80
80
80
00
00
80
80
80
ENDCHAR
STARTCHAR section
ENCODING 167
SWIDTH 633 0
DWIDTH 5 0
BBX 3 8 1 -2
BITMAP
E0
80
40
E0
A0
40
20
E0
ENDCHAR
STARTCHAR afii10023
ENCODING 168
SWIDTH 542 0
DWIDTH 4 0
BBX 4 7 0 0
BITMAP
60
F0
80
E0
80
80
F0
ENDCHAR
STARTCHAR copyright
ENCODING 169
SWIDTH 855 0
DWIDTH 7 0
BBX 7 6 0 0
BITMAP
38
F4
A2
A2
F4
38
ENDCHAR
STARTCHAR afii10053
ENCODING 170
SWIDTH 750 0
DWIDTH 6 0
BBX 5 6 0 0
BITMAP
78
80
F0
80
C8
78
ENDCHAR
STARTCHAR guillemotleft
ENCODING 171
SWIDTH 524 0
DWIDTH 4 0
BBX 3 4 1 0
BITMAP
60
E0
E0
60
ENDCHAR
STARTCHAR logicalnot
ENCODING 172
SWIDTH 633 0
DWIDTH 5 0
BBX 5 2 0 1
BITMAP
F8
08
ENDCHAR
STARTCHAR hyphen
ENCODING 173
SWIDTH 325 0
DWIDTH 3 0
BBX 2 1 0 2
BITMAP
C0
ENDCHAR
STARTCHAR registered
ENCODING 174
SWIDTH 633 0
DWIDTH 5 0
BBX 4 4 1 2
BITMAP
60
F0
F0
60
ENDCHAR
STARTCHAR afii10056
ENCODING 175
SWIDTH 288 0
DWIDTH 2 0
BBX 2 7 1 0
BITMAP
C0
80
80
80
80
80
80
ENDCHAR
STARTCHAR degree
ENCODING 176
SWIDTH 277 0
DWIDTH 2 0
BBX 1 2 1 4
BITMAP
80
80
ENDCHAR
STARTCHAR plusminus
ENCODING 177
SWIDTH 633 0
DWIDTH 5 0
BBX 5 5 0 0
BITMAP
20
F8
20
00
F8
ENDCHAR
STARTCHAR afii10055
ENCODING 178
SWIDTH 288 0
DWIDTH 2 0
BBX 1 6 1 0
BITMAP
80
80
80
80
80
80
ENDCHAR
STARTCHAR afii10103
ENCODING 179
SWIDTH 289 0
DWIDTH 2 0
BBX 1 6 1 0
BITMAP
80
00
80
80
80
80
ENDCHAR
STARTCHAR afii10098
ENCODING 180
SWIDTH 375 0
DWIDTH 3 0
BBX 3 5 0 0
BITMAP
20
E0
80
80
80
ENDCHAR
STARTCHAR mu
ENCODING 181
SWIDTH 627 0
DWIDTH 5 0
BBX 3 6 1 -2
BITMAP
A0
A0
A0
E0
80
80
ENDCHAR
STARTCHAR paragraph
ENCODING 182
SWIDTH 633 0
DWIDTH 5 0
BBX 4 8 0 -2
BITMAP
F0
F0
F0
30
30
30
30
30
ENDCHAR
STARTCHAR periodcentered
ENCODING 183
SWIDTH 316 0
DWIDTH 5 0
BBX 1 1 2 2
BITMAP
80
ENDCHAR
STARTCHAR afii10071
ENCODING 184
SWIDTH 557 0
DWIDTH 4 0
BBX 4 5 0 0
BITMAP
60
60
F0
80
70
ENDCHAR
STARTCHAR afii61352
ENCODING 185
SWIDTH 875 0
DWIDTH 7 0
BBX 6 6 1 0
BITMAP
90
D4
D4
B0
B4
90
ENDCHAR
STARTCHAR afii10101
ENCODING 186
SWIDTH 500 0
DWIDTH 4 0
BBX 3 4 1 0
BITMAP
60
C0
80
60
ENDCHAR
STARTCHAR guillemotright
ENCODING 187
SWIDTH 524 0
DWIDTH 4 0
BBX 3 4 1 0
BITMAP
C0
E0
E0
C0
ENDCHAR
STARTCHAR afii10105
ENCODING 188
SWIDTH 304 0
DWIDTH 2 0
BBX 2 8 0 -2
BITMAP
40
00
40
40
40
40
40
C0
ENDCHAR
STARTCHAR afii10054
ENCODING 189
SWIDTH 539 0
DWIDTH 4 0
BBX 3 6 1 0
BITMAP
E0
80
C0
60
20
E0
ENDCHAR
STARTCHAR afii10102
ENCODING 190
SWIDTH 510 0
DWIDTH 4 0
BBX 3 4 1 0
BITMAP
E0
C0
20
E0
ENDCHAR
STARTCHAR afii10104
ENCODING 191
SWIDTH 289 0
DWIDTH 2 0
BBX 2 5 1 0
BITMAP
C0
80
80
80
80
ENDCHAR
STARTCHAR afii10017
ENCODING 192
SWIDTH 750 0
DWIDTH 6 0
BBX 5 6 0 0
BITMAP
20
70
50
70
88
88
ENDCHAR
STARTCHAR afii10018
ENCODING 193
SWIDTH 625 0
DWIDTH 5 0
BBX 4 6 1 0
BITMAP
F0
80
E0
90
90
F0
ENDCHAR
STARTCHAR afii10019
ENCODING 194
SWIDTH 625 0
DWIDTH 5 0
BBX 4 6 1 0
BITMAP
F0
90
E0
B0
90
E0
ENDCHAR
STARTCHAR afii10020
ENCODING 195
SWIDTH 500 0
DWIDTH 4 0
BBX 4 6 0 0
BITMAP
F0
80
80
80
80
80
ENDCHAR
STARTCHAR afii10021
ENCODING 196
SWIDTH 750 0
DWIDTH 6 0
BBX 6 7 0 -1
BITMAP
78
48
48
48
48
FC
84
ENDCHAR
STARTCHAR afii10022
ENCODING 197
SWIDTH 500 0
DWIDTH 4 0
BBX 4 6 0 0
BITMAP
F0
80
E0
80
80
F0
ENDCHAR
STARTCHAR afii10024
ENCODING 198
SWIDTH 875 0
DWIDTH 7 0
BBX 7 6 0 0
BITMAP
92
54
38
38
54
92
ENDCHAR
STARTCHAR afii10025
ENCODING 199
SWIDTH 625 0
DWIDTH 5 0
BBX 4 6 0 0
BITMAP
E0
10
60
10
10
E0
ENDCHAR
STARTCHAR afii10026
ENCODING 200
SWIDTH 750 0
DWIDTH 6 0
BBX 4 6 1 0
BITMAP
90
B0
B0
D0
D0
90
ENDCHAR
STARTCHAR afii10027
ENCODING 201
SWIDTH 750 0
DWIDTH 6 0
BBX 4 7 1 0
BITMAP
60
90
B0
B0
D0
D0
90
ENDCHAR
STARTCHAR afii10028
ENCODING 202
SWIDTH 625 0
DWIDTH 5 0
BBX 4 6 1 0
BITMAP
B0
A0
C0
C0
A0
90
ENDCHAR
STARTCHAR afii10029
ENCODING 203
SWIDTH 750 0
DWIDTH 6 0
BBX 5 6 0 0
BITMAP
78
48
48
48
48
88
ENDCHAR
STARTCHAR afii10030
ENCODING 204
SWIDTH 875 0
DWIDTH 7 0
BBX 5 6 1 0
BITMAP
88
D8
D8
D8
A8
A8
ENDCHAR
STARTCHAR afii10031
ENCODING 205
SWIDTH 750 0
DWIDTH 6 0
BBX 4 6 1 0
BITMAP
90
90
F0
90
90
90
ENDCHAR
STARTCHAR afii10032
ENCODING 206
SWIDTH 750 0
DWIDTH 6 0
BBX 5 6 1 0
BITMAP
70
D8
88
88
D8
70
ENDCHAR
STARTCHAR afii10033
ENCODING 207
SWIDTH 750 0
DWIDTH 6 0
BBX 4 6 1 0
BITMAP
F0
90
90
90
90
90
ENDCHAR
STARTCHAR afii10034
ENCODING 208
SWIDTH 500 0
DWIDTH 4 0
BBX 4 6 1 0
BITMAP
F0
90
90
E0
80
80
ENDCHAR
STARTCHAR afii10035
ENCODING 209
SWIDTH 750 0
DWIDTH 6 0
BBX 5 6 0 0
BITMAP
78
C0
80
80
C8
78
ENDCHAR
STARTCHAR afii10036
ENCODING 210
SWIDTH 625 0
DWIDTH 5 0
BBX 5 6 0 0
BITMAP
F8
20
20
20
20
20
ENDCHAR
STARTCHAR afii10037
ENCODING 211
SWIDTH 625 0
DWIDTH 5 0
BBX 5 6 0 0
BITMAP
88
88
50
20
20
40
ENDCHAR
STARTCHAR afii10038
ENCODING 212
SWIDTH 1000 0
DWIDTH 8 0
BBX 7 6 1 0
BITMAP
10
7C
92
92
7C
10
ENDCHAR
STARTCHAR afii10039
ENCODING 213
SWIDTH 625 0
DWIDTH 5 0
BBX 5 6 0 0
BITMAP
C8
50
20
60
50
88
ENDCHAR
STARTCHAR afii10040
ENCODING 214
SWIDTH 750 0
DWIDTH 6 0
BBX 5 7 1 -1
BITMAP
90
90
90
90
90
F8
08
ENDCHAR
STARTCHAR afii10041
ENCODING 215
SWIDTH 750 0
DWIDTH 6 0
BBX 4 6 1 0
BITMAP
90
90
90
70
10
10
ENDCHAR
STARTCHAR afii10042
ENCODING 216
SWIDTH 1000 0
DWIDTH 8 0
BBX 7 6 0 0
BITMAP
92
92
92
92
92
FE
ENDCHAR
STARTCHAR afii10043
ENCODING 217
SWIDTH 1000 0
DWIDTH 8 0
BBX 8 7 0 -1
BITMAP
92
92
92
92
92
FF
01
ENDCHAR
STARTCHAR afii10044
ENCODING 218
SWIDTH 625 0
DWIDTH 5 0
BBX 5 6 0 0
BITMAP
C0
40
70
48
48
78
ENDCHAR
STARTCHAR afii10045
ENCODING 219
SWIDTH 875 0
DWIDTH 7 0
BBX 6 6 1 0
BITMAP
84
84
E4
94
94
F4
ENDCHAR
STARTCHAR afii10046
ENCODING 220
SWIDTH 625 0
DWIDTH 5 0
BBX 4 6 1 0
BITMAP
80
80
E0
90
90
F0
ENDCHAR
STARTCHAR afii10047
ENCODING 221
SWIDTH 750 0
DWIDTH 6 0
BBX 5 6 0 0
BITMAP
F0
08
78
08
98
F0
ENDCHAR
STARTCHAR afii10048
ENCODING 222
SWIDTH 1000 0
DWIDTH 8 0
BBX 7 6 1 0
BITMAP
9C
B6
E2
A2
B6
9C
ENDCHAR
STARTCHAR afii10049
ENCODING 223
SWIDTH 625 0
DWIDTH 5 0
BBX 4 6 0 0
BITMAP
70
50
50
30
50
90
ENDCHAR
STARTCHAR afii10065
ENCODING 224
SWIDTH 500 0
DWIDTH 4 0
BBX 4 4 0 0
BITMAP
E0
60
A0
D0
ENDCHAR
STARTCHAR afii10066
ENCODING 225
SWIDTH 625 0
DWIDTH 5 0
BBX 4 6 1 0
BITMAP
30
40
E0
90
90
60
ENDCHAR
STARTCHAR afii10067
ENCODING 226
SWIDTH 500 0
DWIDTH 4 0
BBX 3 4 1 0
BITMAP
E0
C0
A0
E0
ENDCHAR
STARTCHAR afii10068
ENCODING 227
SWIDTH 375 0
DWIDTH 3 0
BBX 3 4 0 0
BITMAP
E0
80
80
80
ENDCHAR
STARTCHAR afii10069
ENCODING 228
SWIDTH 625 0
DWIDTH 5 0
BBX 5 5 0 -1
BITMAP
70
50
50
F8
88
ENDCHAR
STARTCHAR afii10070
ENCODING 229
SWIDTH 500 0
DWIDTH 4 0
BBX 4 4 0 0
BITMAP
60
F0
80
70
ENDCHAR
STARTCHAR afii10072
ENCODING 230
SWIDTH 750 0
DWIDTH 6 0
BBX 5 4 0 0
BITMAP
A8
70
70
A8
ENDCHAR
STARTCHAR afii10073
ENCODING 231
SWIDTH 500 0
DWIDTH 4 0
BBX 3 4 1 0
BITMAP
E0
40
20
E0
ENDCHAR
STARTCHAR afii10074
ENCODING 232
SWIDTH 625 0
DWIDTH 5 0
BBX 4 4 1 0
BITMAP
90
B0
D0
90
ENDCHAR
STARTCHAR afii10075
ENCODING 233
SWIDTH 625 0
DWIDTH 5 0
BBX 4 5 1 0
BITMAP
60
90
B0
D0
90
ENDCHAR
STARTCHAR afii10076
ENCODING 234
SWIDTH 625 0
DWIDTH 5 0
BBX 4 4 1 0
BITMAP
B0
E0
E0
B0
ENDCHAR
STARTCHAR afii10077
ENCODING 235
SWIDTH 625 0
DWIDTH 5 0
BBX 4 4 0 0
BITMAP
70
50
50
90
ENDCHAR
STARTCHAR afii10078
ENCODING 236
SWIDTH 875 0
DWIDTH 7 0
BBX 5 4 1 0
BITMAP
88
D8
A8
A8
ENDCHAR
STARTCHAR afii10079
ENCODING 237
SWIDTH 625 0
DWIDTH 5 0
BBX 3 4 1 0
BITMAP
A0
E0
A0
A0
ENDCHAR
STARTCHAR afii10080
ENCODING 238
SWIDTH 625 0
DWIDTH 5 0
BBX 4 4 0 0
BITMAP
60
90
90
60
ENDCHAR
STARTCHAR afii10081
ENCODING 239
SWIDTH 625 0
DWIDTH 5 0
BBX 3 4 1 0
BITMAP
E0
A0
A0
A0
ENDCHAR
STARTCHAR afii10082
ENCODING 240
SWIDTH 625 0
DWIDTH 5 0
BBX 4 6 1 -2
BITMAP
E0
90
90
E0
80
80
ENDCHAR
STARTCHAR afii10083
ENCODING 241
SWIDTH 500 0
DWIDTH 4 0
BBX 3 4 1 0
BITMAP
60
80
80
60
ENDCHAR
STARTCHAR afii10084
ENCODING 242
SWIDTH 375 0
DWIDTH 3 0
BBX 3 4 0 0
BITMAP
E0
40
40
40
ENDCHAR
STARTCHAR afii10085
ENCODING 243
SWIDTH 500 0
DWIDTH 4 0
BBX 4 6 0 -2
BITMAP
90
D0
60
60
60
40
ENDCHAR
STARTCHAR afii10086
ENCODING 244
SWIDTH 750 0
DWIDTH 6 0
BBX 5 8 0 -2
BITMAP
20
20
70
A8
A8
70
20
20
ENDCHAR
STARTCHAR afii10087
ENCODING 245
SWIDTH 625 0
DWIDTH 5 0
BBX 4 4 0 0
BITMAP
90
60
60
90
ENDCHAR
STARTCHAR afii10088
ENCODING 246
SWIDTH 625 0
DWIDTH 5 0
BBX 4 5 1 -1
BITMAP
A0
A0
A0
F0
10
ENDCHAR
STARTCHAR afii10089
ENCODING 247
SWIDTH 625 0
DWIDTH 5 0
BBX 3 4 1 0
BITMAP
A0
A0
60
20
ENDCHAR
STARTCHAR afii10090
ENCODING 248
SWIDTH 875 0
DWIDTH 7 0
BBX 5 4 1 0
BITMAP
A8
A8
A8
F8
ENDCHAR
STARTCHAR afii10091
ENCODING 249
SWIDTH 875 0
DWIDTH 7 0
BBX 6 5 1 -1
BITMAP
A8
A8
A8
FC
04
ENDCHAR
STARTCHAR afii10092
ENCODING 250
SWIDTH 500 0
DWIDTH 4 0
BBX 4 4 0 0
BITMAP
C0
60
50
70
ENDCHAR
STARTCHAR afii10093
ENCODING 251
SWIDTH 750 0
DWIDTH 6 0
BBX 5 4 1 0
BITMAP
88
C8
A8
E8
ENDCHAR
STARTCHAR afii10094
ENCODING 252
SWIDTH 500 0
DWIDTH 4 0
BBX 3 4 1 0
BITMAP
80
C0
A0
E0
ENDCHAR
STARTCHAR afii10095
ENCODING 253
SWIDTH 500 0
DWIDTH 4 0
BBX 3 4 0 0
BITMAP
C0
60
20
C0
ENDCHAR
STARTCHAR afii10096
ENCODING 254
SWIDTH 875 0
DWIDTH 7 0
BBX 6 4 1 0
BITMAP
98
E4
A4
98
ENDCHAR
STARTCHAR afii10097
ENCODING 255
SWIDTH 500 0
DWIDTH 4 0
BBX 3 4 1 0
BITMAP
E0
A0
60
A0
ENDCHAR
STARTCHAR fl
ENCODING -1
SWIDTH 645 0
DWIDTH 5 0
BBX 4 6 0 0
BITMAP
70
50
D0
50
50
50
ENDCHAR
STARTCHAR Zcaron
ENCODING -1
SWIDTH 605 0
DWIDTH 5 0
BBX 4 7 0 0
BITMAP
50
F0
30
20
40
C0
F0
ENDCHAR
STARTCHAR oe
ENCODING -1
SWIDTH 930 0
DWIDTH 7 0
BBX 7 4 0 0
BITMAP
6E
9E
90
6E
ENDCHAR
STARTCHAR Ydieresis
ENCODING -1
SWIDTH 623 0
DWIDTH 5 0
BBX 5 7 0 0
BITMAP
30
88
50
50
20
20
20
ENDCHAR
STARTCHAR dotlessi
ENCODING -1
SWIDTH 289 0
DWIDTH 2 0
BBX 1 4 1 0
BITMAP
80
80
80
80
ENDCHAR
STARTCHAR lslash
ENCODING -1
SWIDTH 289 0
DWIDTH 2 0
BBX 3 6 0 0
BITMAP
40
40
60
C0
40
40
ENDCHAR
STARTCHAR Lslash
ENCODING -1
SWIDTH 533 0
DWIDTH 4 0
BBX 6 6 1 0
BITMAP
20
20
30
E0
20
3C
ENDCHAR
STARTCHAR fi
ENCODING -1
SWIDTH 645 0
DWIDTH 5 0
BBX 4 6 0 0
BITMAP
70
40
F0
50
50
50
ENDCHAR
STARTCHAR OE
ENCODING -1
SWIDTH 1000 0
DWIDTH 8 0
BBX 8 6 0 0
BITMAP
7F
C8
8E
88
C8
7F
ENDCHAR
STARTCHAR caron
ENCODING -1
SWIDTH 614 0
DWIDTH 5 0
BBX 3 1 1 5
BITMAP
E0
ENDCHAR
STARTCHAR ogonek
ENCODING -1
SWIDTH 614 0
DWIDTH 5 0
BBX 1 2 2 -3
BITMAP
80
80
ENDCHAR
STARTCHAR hungarumlaut
ENCODING -1
SWIDTH 614 0
DWIDTH 5 0
BBX 2 1 2 5
BITMAP
C0
ENDCHAR
STARTCHAR dotaccent
ENCODING -1
SWIDTH 614 0
DWIDTH 5 0
BBX 1 1 2 5
BITMAP
80
ENDCHAR
STARTCHAR breve
ENCODING -1
SWIDTH 614 0
DWIDTH 5 0
BBX 3 1 1 5
BITMAP
E0
ENDCHAR
STARTCHAR tilde
ENCODING -1
SWIDTH 614 0
DWIDTH 5 0
BBX 3 1 1 5
BITMAP
E0
ENDCHAR
STARTCHAR circumflex
ENCODING -1
SWIDTH 614 0
DWIDTH 5 0
BBX 3 1 1 5
BITMAP
E0
ENDCHAR
STARTCHAR scaron
ENCODING -1
SWIDTH 510 0
DWIDTH 4 0
BBX 3 5 1 0
BITMAP
E0
E0
C0
20
E0
ENDCHAR
STARTCHAR ring
ENCODING -1
SWIDTH 614 0
DWIDTH 5 0
BBX 3 3 3 4
BITMAP
40
A0
40
ENDCHAR
STARTCHAR florin
ENCODING -1
SWIDTH 633 0
DWIDTH 5 0
BBX 4 8 1 -2
BITMAP
30
40
40
E0
40
40
80
80
ENDCHAR
STARTCHAR fraction
ENCODING -1
SWIDTH 36 0
DWIDTH 0 0
BBX 5 6 -1 0
BITMAP
08
10
20
20
40
80
ENDCHAR
STARTCHAR Scaron
ENCODING -1
SWIDTH 539 0
DWIDTH 4 0
BBX 3 7 1 0
BITMAP
E0
E0
80
C0
60
20
E0
ENDCHAR
STARTCHAR zcaron
ENCODING -1
SWIDTH 573 0
DWIDTH 5 0
BBX 4 5 0 0
BITMAP
50
F0
20
40
F0
ENDCHAR
ENDFONT
